# xmcd
#
# Track frame offsets: 
#        150
#        13092
#        33307
#        52230
#        66945
#        83930
#        101770
#        122737
#        142870
#        163178
#        175920
#        196120
#        217284
#        229274
#        241549
#        260989
#        280683
#
# Disc length: 3966 seconds
#
# Revision: 0
# Processed by: cddbd v1.5PL3 Copyright (c) Steve Scherf et al.
# Submitted via: ExactAudioCopy v0.95a5
#
DISCID=fb0f7c11
DTITLE=Presuntos Implicados - el pan y la sal
DYEAR=1994
DGENRE=Jazz Pop
TTITLE0=Mi pequeno tesoro
TTITLE1=Las palabras de amor
TTITLE2=Satelite
TTITLE3=Un dia de abril
TTITLE4=Estrella
TTITLE5=Siento vida
TTITLE6=Tu tierra y mis semillas
TTITLE7=La flor de la manana
TTITLE8=Los versos de un loco
TTITLE9=Actriz
TTITLE10=Fragilidad
TTITLE11=El misterio de lo cotidiano
TTITLE12=El muelles
TTITLE13=El pan y la sal
TTITLE14=Aquellas pequenas cosas
TTITLE15=Me das el mar
TTITLE16=Asoma el llanto
EXTD=
EXTT0=
EXTT1=
EXTT2=
EXTT3=
EXTT4=
EXTT5=
EXTT6=
EXTT7=
EXTT8=
EXTT9=
EXTT10=
EXTT11=
EXTT12=
EXTT13=
EXTT14=
EXTT15=
EXTT16=
PLAYORDER=
